<?xml version="1.0" encoding="iso-8859-1"?>
<!-- Uploaded to: SVG Repo, www.svgrepo.com, Generator: SVG Repo Mixer Tools -->
<!DOCTYPE svg PUBLIC "-//W3C//DTD SVG 1.1//EN" "http://www.w3.org/Graphics/SVG/1.1/DTD/svg11.dtd">
<svg fill="#000000" height="800px" width="800px" version="1.1" id="Capa_1" xmlns="http://www.w3.org/2000/svg" xmlns:xlink="http://www.w3.org/1999/xlink" 
	 viewBox="0 0 209.009 209.009" xml:space="preserve">
<path d="M149.202,202.86l59.807-97.246l-15.626-9.61l13.163-43.601L189,47.106V6.148H0v114.166h14.981L149.202,202.86z
	 M144.282,182.226l-93.79-57.681l34.68,10.47l21.224,13.054l3.447-5.605l13.86,4.186l-5.383,8.752l22.146,13.621l8.98-14.602
	l10.066,3.039L144.282,182.226z M163.524,143.002l-75.146-22.687h44.217l-1.02,3.381l24.89,7.514l3.29-10.894h10.62L163.524,143.002
	z M15,21.148h159v84.166H15V21.148z M57.833,30.397h26v65.668h-26V30.397z M97.833,30.397h26v65.668h-26V30.397z M137.833,30.397h26
	v65.668h-26V30.397z M38.833,89.065c0,3.867-3.134,7-7,7s-7-3.133-7-7c0-3.865,3.134-7,7-7S38.833,85.199,38.833,89.065z"/>
</svg>